<?xml version="1.0" encoding="UTF-8"?><svg id="Laag_2" xmlns="http://www.w3.org/2000/svg" viewBox="0 0 901.92 160"><defs><style>.cls-1{fill:#e32120;}.cls-1,.cls-2{stroke-width:0px;}.cls-2{fill:#5b6670;}</style></defs><g id="Layer_1"><path class="cls-1" d="M2.36,35.25c-1.51-3.19-2.36-6.75-2.36-10.51C0,11.21,10.97.24,24.5.24h50.96l-17.24,24.87h-31.94l32.78,48.33,21.76-30.8.1,43.57c-4.04,7.97-12.32,13.43-21.86,13.43-7.35,0-13.93-3.23-18.43-8.35L2.36,35.25Z"/><path class="cls-1" d="M83.66,37.54L109.94.24v73.2h29.96l-16.96,25.43h-14.69s-24.59-1.7-24.59-24.58v-36.74Z"/><path class="cls-2" d="M227.64,99.54h-21.73L162.71,0h23.53l29.9,74.06L246.74,0h22.15l-41.25,99.54Z"/><path class="cls-2" d="M271.27,41.67v-15.09h39.45c20.21,0,30.04,8.72,30.04,27.27v45.69h-51.64c-13.98,0-22.7-8.31-22.7-21.6,0-19.38,13.43-22.71,29.21-22.71h25.47c0-10.1-4.01-13.56-17.58-13.56h-32.26ZM321.11,85v-15.23h-22.7c-5.12,0-11.35.42-11.63,7.61,0,6.51,3.6,7.62,10.25,7.62h24.09Z"/><path class="cls-2" d="M357.93,99.54V26.58h36.13c21.46,0,30.59,7.2,30.59,26.71v46.24h-19.52v-43.75c0-10.38-1.25-13.01-12.6-13.01h-15.5v56.76h-19.1Z"/><path class="cls-2" d="M460.64,0v99.54h-19.93V0h19.93Z"/><path class="cls-2" d="M472.97,62.99c0-17.86,10.94-37.93,38.76-37.93,19.1,0,38.62,11.35,38.62,37.93,0,21.18-13.57,38.07-38.62,38.07-29.91,0-38.76-21.74-38.76-38.07ZM530.28,63.26c0-15.09-8.44-22.15-18.41-22.15-10.66,0-18.83,7.75-18.83,22.15,0,13.43,7.89,22.01,18.41,22.01,7.2,0,18.83-4.15,18.83-22.01Z"/><path class="cls-2" d="M562.96,99.54V26.58h73.79c19.52.55,30.32,6.51,30.32,26.71v46.24h-19.24v-43.75c0-9.69-1.8-14.54-17.03-13.15h-3.46c-1.11,0-2.08,0-2.77.14v56.76h-19.79v-56.76h-22.71v56.76h-19.1Z"/><path class="cls-2" d="M682.97,99.54V26.58h73.79c19.52.55,30.32,6.51,30.32,26.71v46.24h-19.24v-43.75c0-9.69-1.8-14.54-17.03-13.15h-3.46c-1.11,0-2.08,0-2.77.14v56.76h-19.79v-56.76h-22.7v56.76h-19.1Z"/><path class="cls-2" d="M864.87,99.54h-28.1c-30.59,0-36.83-20.07-36.83-36.55,0-18.55,8.72-36.41,36.83-36.41h28.1v15.09h-25.47c-11.35,0-17.3,1.66-18,13.84h43.47v15.36h-43.47c.69,10.94,3.46,13.57,17.86,13.57h25.61v15.09Z"/><path class="cls-2" d="M901.92,0v99.54h-19.93V0h19.93Z"/><path class="cls-1" d="M363.83,124.96l-13.18,34.45h-6.17l-12.98-34.45h5.54s10.62,30.13,10.62,30.13l11-30.12h5.18Z"/><path class="cls-1" d="M383.56,159.41v-34.45h19.3v4.34h-14.36v10.07h13.08v4.34h-13.08v11.35h14.36v4.34h-19.3Z"/><path class="cls-1" d="M421.77,159.41l14.71-34.45h5.18l14.56,34.45h-5.36s-3.51-8.68-3.51-8.68h-16.88l-3.54,8.68h-5.16ZM445.74,146.67l-6.84-17.08-6.87,17.08h13.71Z"/><path class="cls-1" d="M475.95,159.41v-34.45h4.94v30.11h14.41v4.34h-19.35Z"/><path class="cls-1" d="M570.56,126.09l-.4,4.98c-1.25-.82-2.6-1.42-4.05-1.8-1.45-.38-3.26-.57-5.43-.57-3.92,0-7.1,1.28-9.55,3.83-2.45,2.55-3.68,5.77-3.68,9.65s1.25,7.22,3.75,9.72c2.5,2.5,5.58,3.75,9.23,3.75,1.45,0,2.63-.07,3.55-.2.92-.2,1.58-.33,1.97-.4v-10.46h-7.25v-4.05h12.19v17.91c-1.18.4-2.64.75-4.37,1.06-1.73.31-3.78.47-6.14.47-5.49,0-9.89-1.62-13.2-4.86-3.31-3.24-4.96-7.61-4.96-13.1s1.7-9.57,5.11-12.81c3.41-3.24,7.77-4.86,13.1-4.86,2.24,0,4.19.17,5.87.49,1.02.2,2.43.61,4.24,1.23Z"/><path class="cls-1" d="M592.67,142.18c0-5.23,1.45-9.48,4.34-12.73,3.03-3.39,7.11-5.08,12.24-5.08s9.16,1.7,12.19,5.08c2.93,3.29,4.39,7.53,4.39,12.73s-1.47,9.63-4.42,12.91c-2.94,3.27-7,4.91-12.16,4.91s-9.22-1.63-12.17-4.89c-2.94-3.26-4.42-7.57-4.42-12.93ZM597.9,142.18c0,3.79.89,6.89,2.67,9.33,2.01,2.76,4.9,4.15,8.69,4.15s6.6-1.38,8.64-4.15c1.81-2.47,2.71-5.58,2.71-9.33s-.94-6.91-2.81-9.38c-2.07-2.73-4.92-4.1-8.54-4.1s-6.47,1.37-8.54,4.1c-1.88,2.47-2.81,5.6-2.81,9.38Z"/><path class="cls-1" d="M645.87,142.18c0-5.23,1.45-9.48,4.34-12.73,3.03-3.39,7.11-5.08,12.24-5.08s9.16,1.7,12.19,5.08c2.93,3.29,4.39,7.53,4.39,12.73s-1.47,9.63-4.42,12.91c-2.94,3.27-7,4.91-12.16,4.91s-9.22-1.63-12.17-4.89c-2.94-3.26-4.42-7.57-4.42-12.93ZM651.1,142.18c0,3.79.89,6.89,2.67,9.33,2.01,2.76,4.9,4.15,8.69,4.15s6.6-1.38,8.64-4.15c1.81-2.47,2.71-5.58,2.71-9.33s-.94-6.91-2.81-9.38c-2.07-2.73-4.92-4.1-8.54-4.1s-6.47,1.37-8.54,4.1c-1.88,2.47-2.81,5.6-2.81,9.38Z"/><path class="cls-1" d="M700.55,159.41v-34.45h10.17c5.26,0,9.61,1.5,13.03,4.49,3.55,3.13,5.33,7.27,5.33,12.44,0,5.69-1.61,10.03-4.84,13.03-3.22,3-7.73,4.49-13.52,4.49h-10.17ZM705.49,129.3v25.76h5.18c4.31,0,7.58-1.07,9.82-3.21,2.24-2.14,3.35-5.4,3.35-9.77,0-3.95-1.18-7.07-3.53-9.35s-5.37-3.43-9.06-3.43h-5.77Z"/></g></svg>